# xmcd
#
# Track frame offsets: 
#        150
#        27912
#        44298
#        71176
#        91291
#        111252
#        127697
#        149781
#        170719
#        190362
#        204732
#        221684
#        238877
#
# Disc length: 3369 seconds
#
# Revision: 0
# Processed by: cddbd v1.5.2PL0 Copyright (c) Steve Scherf et al.
# Submitted via: ExactAudioCopyFreeDBPlugin 1.0
#
DISCID=ce0d270d
DTITLE=Soppa - Puukko B Edition 1
DYEAR=2011
DGENRE=Rap
TTITLE0=Intro (feat. Hessu and Jantteri)
TTITLE1=Hyv‰ P‰iv‰ (Panama Rayo Drum'N'Base Remix)
TTITLE2=Taas 1 P‰iv‰ (feat. Getto-Otto)
TTITLE3=Anti Olla Lapset (feat. Rayo and Dima1)
TTITLE4=Lyriikkaa Lekurille
TTITLE5=Is‰, Poika Ja Pyh‰ Allu (feat. Tukenukem and Puukko-Allu)
TTITLE6=Loppupeleiss‰ (feat. Liika-Lesti)
TTITLE7=Anthem
TTITLE8=R‰ppi-El‰m‰‰
TTITLE9=Rakastanu Yht‰ Vaan
TTITLE10=Meik‰ O Hullu! (feat. Rayo)
TTITLE11=Tervetuloa Painajaisiin (feat. Torni-Pete)
TTITLE12=Outro 2002
EXTD=
EXTT0=
EXTT1=
EXTT2=
EXTT3=
EXTT4=
EXTT5=
EXTT6=
EXTT7=
EXTT8=
EXTT9=
EXTT10=
EXTT11=
EXTT12=
PLAYORDER=
